{
  "accessors": [
    {
      "bufferView": 2,
      "componentType": 5126,
      "count": 34014,
      "max": [
        9.800175666809082,
        18.65483283996582,
        6.211233615875244
      ],
      "min": [
        -9.15511417388916,
        -0.620796263217926,
        -3.486461877822876
      ],
      "type": "VEC3"
    },
    {
      "bufferView": 2,
      "byteOffset": 408168,
      "componentType": 5126,
      "count": 34014,
      "max": [
        0.9999741315841675,
        1.0,
        0.9999991059303284
      ],
      "min": [
        -0.9999935626983643,
        -0.999991238117218,
        -0.9991437792778015
      ],
      "type": "VEC3"
    },
    {
      "bufferView": 3,
      "componentType": 5126,
      "count": 34014,
      "max": [
        0.9999548196792603,
        0.9999870657920837,
        0.999985933303833,
        1.0
      ],
      "min": [
        -0.9998265504837036,
        -0.9999601244926453,
        -0.9990354776382446,
        -1.0
      ],
      "type": "VEC4"
    },
    {
      "bufferView": 3,
      "byteOffset": 544224,
      "componentType": 5126,
      "count": 34014,
      "max": [
        1.0,
        1.0,
        1.0,
        1.0
      ],
      "min": [
        1.0,
        1.0,
        1.0,
        0.0
      ],
      "type": "VEC4"
    },
    {
      "bufferView": 1,
      "componentType": 5126,
      "count": 34014,
      "max": [
        0.9997482299804688,
        0.9929198026657104
      ],
      "min": [
        0.000244140625,
        0.00010802282486110926
      ],
      "type": "VEC2"
    },
    {
      "bufferView": 1,
      "byteOffset": 272112,
      "componentType": 5126,
      "count": 34014,
      "max": [
        0.9997482299804688,
        0.9929198026657104
      ],
      "min": [
        0.000244140625,
        0.00010802282486110926
      ],
      "type": "VEC2"
    },
    {
      "bufferView": 0,
      "componentType": 5125,
      "count": 88899,
      "type": "SCALAR"
    }
  ],
  "asset": {
    "extras": {
      "author": "Thomas Flynn (https://sketchfab.com/nebulousflynn)",
      "license": "CC-BY-4.0 (http://creativecommons.org/licenses/by/4.0/)",
      "source": "https://sketchfab.com/3d-models/west-doors-bath-abbey-bath-uk-12c164a20a184b26b50360ffbc7d56f6",
      "title": "West Doors, Bath Abbey, Bath, UK"
    },
    "generator": "Sketchfab-15.58.0",
    "version": "2.0"
  },
  "bufferViews": [
    {
      "buffer": 0,
      "byteLength": 355596,
      "name": "floatBufferViews",
      "target": 34963
    },
    {
      "buffer": 0,
      "byteLength": 544224,
      "byteOffset": 355596,
      "byteStride": 8,
      "name": "floatBufferViews",
      "target": 34962
    },
    {
      "buffer": 0,
      "byteLength": 816336,
      "byteOffset": 899820,
      "byteStride": 12,
      "name": "floatBufferViews",
      "target": 34962
    },
    {
      "buffer": 0,
      "byteLength": 1088448,
      "byteOffset": 1716156,
      "byteStride": 16,
      "name": "floatBufferViews",
      "target": 34962
    }
  ],
  "buffers": [
    {
      "byteLength": 2804604,
      "uri": "scene.bin"
    }
  ],
  "images": [
    {
      "uri": "textures/Bath_Abbey_Door_Model_30K_u1_v1_baseColor.png"
    },
    {
      "uri": "textures/Bath_Abbey_Door_Model_30K_u1_v1_normal.png"
    }
  ],
  "materials": [
    {
      "doubleSided": true,
      "name": "Bath_Abbey_Door_Model_30K_u1_v1",
      "normalTexture": {
        "index": 1
      },
      "pbrMetallicRoughness": {
        "baseColorTexture": {
          "index": 0
        },
        "metallicFactor": 0.0
      }
    }
  ],
  "meshes": [
    {
      "name": "Object_0",
      "primitives": [
        {
          "attributes": {
            "COLOR_0": 3,
            "NORMAL": 1,
            "POSITION": 0,
            "TANGENT": 2,
            "TEXCOORD_0": 4,
            "TEXCOORD_1": 5
          },
          "indices": 6,
          "material": 0,
          "mode": 4
        }
      ]
    }
  ],
  "nodes": [
    {
      "children": [
        1
      ],
      "matrix": [
        0.3333333432674408,
        0.0,
        0.0,
        0.0,
        0.0,
        7.401487051415874e-17,
        -0.3333333432674408,
        0.0,
        0.0,
        0.3333333432674408,
        7.401487051415874e-17,
        0.0,
        0.0,
        0.0,
        0.0,
        1.0
      ],
      "name": "Sketchfab_model"
    },
    {
      "children": [
        2
      ],
      "name": "root"
    },
    {
      "children": [
        3
      ],
      "matrix": [
        1.0,
        0.0,
        0.0,
        0.0,
        0.0,
        2.220446049250313e-16,
        1.0,
        0.0,
        0.0,
        -1.0,
        2.220446049250313e-16,
        0.0,
        0.0,
        0.0,
        0.0,
        1.0
      ],
      "name": "GLTF_SceneRootNode"
    },
    {
      "children": [
        4
      ],
      "name": "Bath_Abbey_Door_Model_30K_0"
    },
    {
      "mesh": 0,
      "name": "Object_4"
    }
  ],
  "samplers": [
    {
      "magFilter": 9729,
      "minFilter": 9987,
      "wrapS": 10497,
      "wrapT": 10497
    }
  ],
  "scene": 0,
  "scenes": [
    {
      "name": "Sketchfab_Scene",
      "nodes": [
        0
      ]
    }
  ],
  "textures": [
    {
      "sampler": 0,
      "source": 0
    },
    {
      "sampler": 0,
      "source": 1
    }
  ]
}
